
Format : Matroska
File size : 643 MiB
Duration : 1h 40mn
Overall bit rate : 898 Kbps
Encoded date : UTC 2010-11-05 18:41:27
Writing application : mkvmerge v2.4.0 ('Fumbling Towards Ecstasy') built on Oct 11 2008 20:13:15
Writing library : libebml v0.7.7 + libmatroska v0.8.1

Video
ID : 1
Format : AVC
Format/Info : Advanced Video Codec
Format profile : Baseline@L2.1
Format settings, CABAC : No
Format settings, ReFrames : 1 frame
Muxing mode : Container profile=Unknown@2.1
Codec ID : V_MPEG4/ISO/AVC
Duration : 1h 40mn
Bit rate : 752 Kbps
Nominal bit rate : 768 Kbps
Width : 640 pixels
Height : 360 pixels
Display aspect ratio : 16:9
Frame rate : 25.000 fps
Resolution : 24 bits
Colorimetry : 4:2:0
Scan type : Progressive
Bits/(Pixel*Frame) : 0.131
Stream size : 538 MiB (84%)
Writing library : x264 core 67 r1163+17 7d945df

Audio
ID : 2
Format : AC-3
Format/Info : Audio Coding 3
Codec ID : A_AC3
Duration : 1h 40mn
Bit rate mode : Constant
Bit rate : 128 Kbps
Channel(s) : 6 channels
Channel positions : Front: L C R, Surround: L R, LFE
Sampling rate : 44.1 KHz
Stream size : 91.6 MiB (14%)

The movie tells the story of Kate (O'Connor), an angry but creative young woman who through a series of lucky breaks ends up becoming one of the biggest pop stars of her day. Her friend and manager Danny (played by a young Phil Daniels) comes along for the ride. All goes well for both of them until Kate has a nervous breakdown prompted by violence at a demonstration, and the group's saxophonist Ken (Jonathan Pryce) becomes increasingly dependent on intravenous drugs
 
http://www.imdb.com/title/tt0080469/

screens
 
http://img832.imageshack.us/img832/7038/breakingclassmkvvicemkv.jpg 
http://img703.imageshack.us/img703/7038/breakingclassmkvvicemkv.jpg 
http://img72.imageshack.us/img72/7038/breakingclassmkvvicemkv.jpg 
http://img217.imageshack.us/img217/7038/breakingclassmkvvicemkv.jpg